# xmcd
#
# Track frame offsets: 
#        150
#        13174
#        25598
#        39447
#        52021
#        62870
#        74394
#        85993
#        97742
#        110091
#        121840
#        133589
#        145938
#        156862
#        171236
#        182985
#        194884
#
# Disc length: 2774 seconds
#
# Revision: 0
# Processed by: cddbd v1.5.2PL0 Copyright (c) Steve Scherf et al.
# Submitted via: ExactAudioCopy v1.0b4
#
DISCID=f60ad411
DTITLE=Muddy Waters - Original Hits and Rarities 1941-1961 Hard Day Blue
DTITLE=s
DYEAR=1900
DGENRE=Blues
TTITLE0=Jitterburg Blues
TTITLE1=Buryin' Ground Blues
TTITLE2=Tomorrow Will Be Too Late
TTITLE3=Hard Day Blues
TTITLE4=Mean Red Sider
TTITLE5=Atomic Bomb Blues
TTITLE6=Little Anna Mae
TTITLE7=Gypsy Woman
TTITLE8=Good Lookin' Woman
TTITLE9=You' re Gonna Miss Me
TTITLE10=Mean Disposition
TTITLE11=I Can't Be Satisfied
TTITLE12=Stand Here Tremblin'
TTITLE13=I Fell Like going Home
TTITLE14=Sittin' Here And Drinkin'
TTITLE15=Kind Hearted Woman
TTITLE16=Down South Blues
EXTD=
EXTT0=
EXTT1=
EXTT2=
EXTT3=
EXTT4=
EXTT5=
EXTT6=
EXTT7=
EXTT8=
EXTT9=
EXTT10=
EXTT11=
EXTT12=
EXTT13=
EXTT14=
EXTT15=
EXTT16=
PLAYORDER=
